<svg xmlns="http://www.w3.org/2000/svg" viewBox="0 0 256 256" role="img" aria-label="Popcorn Queue icon">
  <defs>
    <linearGradient id="bg" x1="40" x2="216" y1="24" y2="232" gradientUnits="userSpaceOnUse">
      <stop stop-color="#ffffff"/>
      <stop offset="1" stop-color="#f7f3ea"/>
    </linearGradient>
    <linearGradient id="card" x1="126" x2="222" y1="70" y2="172" gradientUnits="userSpaceOnUse">
      <stop stop-color="#fffdf7"/>
      <stop offset="1" stop-color="#eee8dd"/>
    </linearGradient>
    <linearGradient id="corn" x1="52" x2="147" y1="58" y2="130" gradientUnits="userSpaceOnUse">
      <stop stop-color="#fffef2"/>
      <stop offset="1" stop-color="#ffd766"/>
    </linearGradient>
    <linearGradient id="red" x1="49" x2="137" y1="127" y2="224" gradientUnits="userSpaceOnUse">
      <stop stop-color="#ff3b35"/>
      <stop offset="1" stop-color="#cc1425"/>
    </linearGradient>
    <filter id="shadow" x="-20%" y="-20%" width="140%" height="150%" color-interpolation-filters="sRGB">
      <feDropShadow dx="0" dy="8" stdDeviation="10" flood-color="#1d252f" flood-opacity=".16"/>
    </filter>
    <filter id="soft" x="-20%" y="-20%" width="140%" height="140%" color-interpolation-filters="sRGB">
      <feDropShadow dx="0" dy="3" stdDeviation="3" flood-color="#1d252f" flood-opacity=".12"/>
    </filter>
  </defs>

  <rect width="256" height="256" rx="54" fill="url(#bg)"/>
  <rect x="10" y="10" width="236" height="236" rx="46" fill="none" stroke="#ffffff" stroke-width="10" opacity=".85"/>

  <g filter="url(#shadow)">
    <rect x="112" y="70" width="105" height="42" rx="14" fill="url(#card)"/>
    <rect x="137" y="82" width="28" height="18" rx="6" fill="#1f2632"/>
    <rect x="173" y="84" width="34" height="6" rx="3" fill="#ffbc2f"/>
    <rect x="173" y="97" width="24" height="5" rx="2.5" fill="#7d8da3"/>

    <rect x="125" y="118" width="96" height="42" rx="14" fill="url(#card)"/>
    <rect x="146" y="130" width="28" height="18" rx="6" fill="#1f2632"/>
    <rect x="181" y="132" width="30" height="6" rx="3" fill="#ffbc2f"/>
    <rect x="181" y="145" width="22" height="5" rx="2.5" fill="#7d8da3"/>

    <rect x="137" y="166" width="84" height="42" rx="14" fill="url(#card)"/>
    <rect x="155" y="178" width="27" height="18" rx="6" fill="#1f2632"/>
    <rect x="190" y="180" width="24" height="6" rx="3" fill="#ffbc2f"/>
    <rect x="190" y="193" width="18" height="5" rx="2.5" fill="#7d8da3"/>
  </g>

  <g filter="url(#soft)">
    <circle cx="49" cy="108" r="20" fill="url(#corn)"/>
    <circle cx="72" cy="85" r="23" fill="url(#corn)"/>
    <circle cx="99" cy="76" r="25" fill="url(#corn)"/>
    <circle cx="126" cy="87" r="21" fill="url(#corn)"/>
    <circle cx="146" cy="112" r="22" fill="url(#corn)"/>
    <circle cx="69" cy="119" r="22" fill="#fffdf2"/>
    <circle cx="99" cy="112" r="24" fill="#fffdf2"/>
    <circle cx="126" cy="117" r="22" fill="#fffdf2"/>
    <circle cx="88" cy="93" r="14" fill="#ffa900"/>
    <circle cx="132" cy="101" r="14" fill="#ffa900"/>
    <circle cx="55" cy="122" r="13" fill="#ffa900"/>
  </g>

  <g filter="url(#shadow)">
    <path d="M37 120h120l-14 93c-2 13-13 22-26 22H76c-13 0-24-9-26-22L37 120Z" fill="#fffdf8"/>
    <path d="M47 130h23l8 100H58L47 130Z" fill="url(#red)"/>
    <path d="M91 130h21l-2 100H88L91 130Z" fill="url(#red)"/>
    <path d="M135 130h20l-13 83c-2 9-8 16-17 18l10-101Z" fill="url(#red)"/>
    <path d="M32 111c0-8 7-14 15-14h100c8 0 15 6 15 14v9c0 8-7 14-15 14H47c-8 0-15-6-15-14v-9Z" fill="#fffefb"/>
    <path d="M37 121h120v5c0 6-5 11-11 11H48c-6 0-11-5-11-11v-5Z" fill="#e8dfd5" opacity=".65"/>
  </g>
</svg>
